<?xml version="1.0" encoding="UTF-8"?>
<svg version="1.1" xmlns="http://www.w3.org/2000/svg" width="400" height="400">
<path d="M0 0 C127.38 0 254.76 0 386 0 C386 35.97 386 71.94 386 109 C346.75176518 109.61608043 346.75176518 109.61608043 333.28759766 109.76855469 C332.35373332 109.77913202 331.41986899 109.78970935 330.45770574 109.8006072 C288.96918974 110.25830067 247.47518915 110.14845225 205.98478997 110.12856841 C197.20478121 110.12480113 188.42478374 110.12615731 179.64477539 110.13037109 C91.80711531 110.17154911 91.80711531 110.17154911 55.01806641 109.76855469 C54.12253579 109.75874651 53.22700517 109.74893834 52.30433726 109.73883295 C34.86881805 109.54300908 17.434688 109.26136475 0 109 C0 73.03 0 37.06 0 0 Z M6 10 C6 11.98 6 13.96 6 16 C6.66 16 7.32 16 8 16 C8 16.66 8 17.32 8 18 C7.34 18 6.68 18 6 18 C6 31.86 6 45.72 6 60 C6.66 59.34 7.32 58.68 8 58 C8.33 58.99 8.66 59.98 9 61 C8.01 61 7.02 61 6 61 C5.97534902 65.96622349 5.95716351 70.93241166 5.94506836 75.89868164 C5.9400281 77.58944316 5.93319595 79.28020029 5.92456055 80.97094727 C5.91248143 83.39600707 5.90676877 85.82100944 5.90234375 88.24609375 C5.89718246 89.00651474 5.89202118 89.76693573 5.88670349 90.55039978 C5.88650762 92.3673257 5.93802723 94.18413127 6 96 C6.98407311 97.20495909 6.98407311 97.20495909 8.85766602 97.11352539 C9.64842529 97.10828857 10.43918457 97.10305176 11.25390625 97.09765625 C12.0229126 97.09515869 12.79191895 97.09266113 13.58422852 97.09008789 C14.56705811 97.08098389 15.5498877 97.07187988 16.5625 97.0625 C19.676875 97.041875 22.79125 97.02125 26 97 C26 85.45 26 73.9 26 62 C25.34 62 24.68 62 24 62 C24 62.66 24 63.32 24 64 C23.01 63.34 22.02 62.68 21 62 C22.485 61.505 22.485 61.505 24 61 C24 60.01 24 59.02 24 58 C24.66 58 25.32 58 26 58 C26.07597749 51.64631803 26.12856897 45.29275291 26.16479492 38.9387207 C26.17989444 36.77656679 26.20037571 34.61444357 26.22631836 32.45239258 C26.26265017 29.347091 26.27971462 26.24219386 26.29296875 23.13671875 C26.30845261 22.16788254 26.32393646 21.19904633 26.33988953 20.20085144 C26.34011612 19.3001442 26.34034271 18.39943695 26.34057617 17.47143555 C26.34723801 16.67867722 26.35389984 15.88591888 26.36076355 15.06913757 C25.90850123 12.47521435 25.0538725 11.59654963 23 10 C21.07435138 9.59011951 21.07435138 9.59011951 18.98828125 9.70703125 C18.23095703 9.71669922 17.47363281 9.72636719 16.69335938 9.73632812 C15.90767578 9.76146484 15.12199219 9.78660156 14.3125 9.8125 C13.51521484 9.82603516 12.71792969 9.83957031 11.89648438 9.85351562 C9.93070033 9.88882911 7.96526418 9.94263553 6 10 Z M29 10 C29 14.95 29 19.9 29 25 C33.76485225 26.16516452 33.76485225 26.16516452 37.75 25.8125 C42.61274506 25.74778666 46.97055322 27.29140922 51 30 C53.44357584 33.75815778 53.68118998 37.63533829 53 42 C50.72345238 46.46877866 48.51210466 48.86790659 44 51 C41.28489407 51.2110186 38.8804924 51.28721867 36.1875 51.1875 C33.815625 51.125625 31.44375 51.06375 29 51 C29 56.28 29 61.56 29 67 C47.79392935 67.93028998 47.79392935 67.93028998 64.625 60.9375 C70.98288634 54.31643318 73.68199895 46.98435822 74.06640625 37.88671875 C73.8618165 28.99308213 70.98991873 22.22461983 64.875 15.75 C53.40722734 8.76961664 42.01587879 9.5864328 29 10 Z M86 10 C86 38.71 86 67.42 86 97 C92.27 97 98.54 97 105 97 C105 68.29 105 39.58 105 10 C98.73 10 92.46 10 86 10 Z M109 10 C109 15.28 109 20.56 109 26 C113.94989156 26.24810765 113.94989156 26.24810765 118.90063477 26.47802734 C123.49519854 26.73682653 127.64701646 27.38615743 132 29 C134.82540356 33.23810535 134.77772321 37.02415866 134 42 C131.83108555 45.03648023 130.44419352 46.61316245 126.8125 47.5859375 C123.27985852 48.10602083 119.74885947 48.35438123 116.1875 48.5625 C113.815625 48.706875 111.44375 48.85125 109 49 C109 54.28 109 59.56 109 65 C110.98 65 112.96 65 115 65 C117.40417212 65 119.57504016 65.42401648 121.9375 65.875 C122.81277344 66.03742188 123.68804687 66.19984375 124.58984375 66.3671875 C127 67 127 67 130 69 C130.85961914 71.47436523 130.85961914 71.47436523 131.53515625 74.55859375 C131.78716797 75.66654297 132.03917969 76.77449219 132.29882812 77.91601562 C132.55083984 79.07810547 132.80285156 80.24019531 133.0625 81.4375 C133.56876371 83.72907654 134.08025084 86.01950711 134.59765625 88.30859375 C134.81945557 89.32751709 135.04125488 90.34644043 135.26977539 91.39624023 C135.91226388 94.20359418 135.91226388 94.20359418 138 97 C141.60591321 97.47446226 143.89782379 96.83832664 147 95 C147 94.01 147 93.02 147 92 C148.32 92.33 149.64 92.66 151 93 C150.01 93 149.02 93 148 93 C148 93.99 148 94.98 148 96 C147.01 96.495 147.01 96.495 146 97 C149.63 97 153.26 97 157 97 C157.33 96.34 157.66 95.68 158 95 C157.525625 94.608125 157.05125 94.21625 156.5625 93.8125 C154.64408868 91.58714287 154.45173233 89.86097141 154 87 C153.67 86.67 153.34 86.34 153 86 C152.76712992 84.31816052 152.58735834 82.6287584 152.4375 80.9375 C152.35371094 80.01839844 152.26992187 79.09929687 152.18359375 78.15234375 C152.09271484 77.08693359 152.09271484 77.08693359 152 76 C151.01 76 150.02 76 149 76 C149 75.01 149 74.02 149 73 C149.66 72.67 150.32 72.34 151 72 C150.67 71.01 150.34 70.02 150 69 C150 68.01 150 67.02 150 66 C149.01 66 148.02 66 147 66 C147.66 65.67 148.32 65.34 149 65 C147.5682479 59.98886765 145.01554307 58.05530451 141 55 C141.53109375 54.70867187 142.0621875 54.41734375 142.609375 54.1171875 C148.36835599 50.77529707 151.83319546 47.50041362 154 41 C154.61294618 33.09198949 155.14496833 25.46881982 150 19 C143.77095203 12.41669338 137.33084244 10.19214642 128.36962891 9.92016602 C125.43329713 9.90190462 122.49877656 9.91266487 119.5625 9.9375 C118.54478516 9.94201172 117.52707031 9.94652344 116.47851562 9.95117188 C113.98565142 9.96287546 111.4928178 9.98080808 109 10 Z M169 10 C169 28.48 169 46.96 169 66 C169.66 66 170.32 66 171 66 C171.33 67.65 171.66 69.3 172 71 C172.99 71 173.98 71 175 71 C175 71.66 175 72.32 175 73 C173.02 72.67 171.04 72.34 169 72 C169 75.63 169 79.26 169 83 C169.66 83 170.32 83 171 83 C171 83.66 171 84.32 171 85 C170.34 85 169.68 85 169 85 C168.979375 86.258125 168.95875 87.51625 168.9375 88.8125 C168.92589844 89.52019531 168.91429687 90.22789062 168.90234375 90.95703125 C168.91736783 93.20305461 168.91736783 93.20305461 170 96 C174.35332736 96.84023188 178.44442519 97.10770995 182.875 97.0625 C184.02742187 97.05347656 185.17984375 97.04445313 186.3671875 97.03515625 C187.67042969 97.01775391 187.67042969 97.01775391 189 97 C188.67 96.01 188.34 95.02 188 94 C187.34 94 186.68 94 186 94 C187.485 93.01 187.485 93.01 189 92 C189.41644946 89.61200652 189.41644946 89.61200652 189.29296875 86.84375 C189.28330078 85.82152344 189.27363281 84.79929687 189.26367188 83.74609375 C189.23853516 82.67488281 189.21339844 81.60367188 189.1875 80.5 C189.17396484 79.42878906 189.16042969 78.35757813 189.14648438 77.25390625 C189.11004936 74.50219498 189.05678578 71.75134373 189 69 C189 68.34 189 67.68 189 67 C188.50161248 64.22326952 187.89404661 61.68213983 187 59 C186.34 59 185.68 59 185 59 C185 58.67 185 58.34 185 58 C186.98 57.505 186.98 57.505 189 57 C189 41.49 189 25.98 189 10 C182.4 10 175.8 10 169 10 Z M203 10 C205.07587584 17.0792689 209.0541485 22.85607262 213 29 C213.47050781 29.77988281 213.94101563 30.55976562 214.42578125 31.36328125 C216.48733251 34.60669902 217.54612594 35.87154508 221.3125 36.9375 C222.199375 36.958125 223.08625 36.97875 224 37 C222.02 37.99 222.02 37.99 220 39 C220.33 39.99 220.66 40.98 221 42 C226.91492272 41.54775239 232.35199888 40.8417395 238 39 C237.505 37.515 237.505 37.515 237 36 C236.34 35.67 235.68 35.34 235 35 C234.26572863 33.33990821 233.53429857 31.67715972 232.87890625 29.984375 C232.00572305 27.89698569 232.00572305 27.89698569 230.59375 25.69140625 C229 23 229 23 227.58984375 19.66796875 C225.64181135 15.56466646 224.31627388 13.14030833 221 10 C215.15210046 8.37164052 208.93534589 9.25808176 203 10 Z M276.38745117 21.53833008 C275.61880202 23.20963682 274.86598665 24.88832466 274.12988281 26.57421875 C272.70655535 29.63000563 270.97841805 32.39973682 269.12646484 35.2109375 C267.94545321 37.08663175 266.98466579 39.01563536 266 41 C265.1646875 42.2684375 265.1646875 42.2684375 264.3125 43.5625 C263.9707373 44.08553711 263.62897461 44.60857422 263.27685547 45.14746094 C262.32506581 46.52837489 261.30726182 47.86422341 260.25830078 49.17285156 C254.19970046 57.34667788 254.14722564 64.49963049 254.5625 74.1875 C254.59770202 75.63078264 254.62962522 77.07414913 254.65820312 78.51757812 C254.73443137 82.01349504 254.85470403 85.50619076 255 89 C257.79735685 86.49556841 259.49031396 83.70357593 261.37109375 80.46875 C262.02279541 79.35628906 262.67449707 78.24382812 263.34594727 77.09765625 C264.04321089 75.89848365 264.74039357 74.69926398 265.4375 73.5 C270.94691843 64.06619185 276.56008973 54.73786292 282.63256836 45.65039062 C283.09542236 44.94076172 283.55827637 44.23113281 284.03515625 43.5 C284.4412915 42.8915625 284.84742676 42.283125 285.26586914 41.65625 C286.30905546 39.80461407 286.30905546 39.80461407 285 37 C285.99 36.34 286.98 35.68 288 35 C288 34.34 288 33.68 288 33 C288.66 33 289.32 33 290 33 C291.52363489 30.91323194 291.52363489 30.91323194 293.0390625 28.22265625 C293.61914062 27.23458984 294.19921875 26.24652344 294.796875 25.22851562 C295.40015625 24.18373047 296.0034375 23.13894531 296.625 22.0625 C297.54152344 20.50112305 297.54152344 20.50112305 298.4765625 18.90820312 C301.44731424 14.6896492 301.44731424 14.6896492 303 10 C289.27317693 7.5675785 282.73021669 8.52871613 276.38745117 21.53833008 Z M316 10 C315.67 10.66 315.34 11.32 315 12 C315.33 12.66 315.66 13.32 316 14 C317.98 13.34 319.96 12.68 322 12 C319.18490007 9.7226499 319.18490007 9.7226499 316 10 Z M324 10 C322.05433049 13.47547073 321.92362873 15.12506344 323 19 C321.35 18.67 319.7 18.34 318 18 C317.67 18.66 317.34 19.32 317 20 C317.66 20 318.32 20 319 20 C318.67 21.32 318.34 22.64 318 24 C317.34 24 316.68 24 316 24 C316 24.66 316 25.32 316 26 C316.66 26 317.32 26 318 26 C318 26.66 318 27.32 318 28 C318.99 27.67 319.98 27.34 321 27 C321.33 27.66 321.66 28.32 322 29 C321.34 29 320.68 29 320 29 C320.34879632 32.25543229 321.02133261 33.01873107 323.5625 35.25 C324.7690625 36.11625 324.7690625 36.11625 326 37 C325.34 37.5775 324.68 38.155 324 38.75 C321.55709077 40.99653977 321.55709077 40.99653977 322 45 C324.475 44.505 324.475 44.505 327 44 C326.01 46.475 326.01 46.475 325 49 C325 48.01 325 47.02 325 46 C323.515 46.495 323.515 46.495 322 47 C322 47.66 322 48.32 322 49 C321.01 49.495 321.01 49.495 320 50 C320.33 48.68 320.66 47.36 321 46 C320.01 45.34 319.02 44.68 318 44 C318 43.34 318 42.68 318 42 C318.66 42 319.32 42 320 42 C320.33 40.35 320.66 38.7 321 37 C320.34 37 319.68 37 319 37 C318.67 36.34 318.34 35.68 318 35 C317.01 37.475 317.01 37.475 316 40 C315.67 40 315.34 40 315 40 C315 46.6 315 53.2 315 60 C316.32 60 317.64 60 319 60 C319.2475 59.38125 319.495 58.7625 319.75 58.125 C321.20628639 55.64931313 322.37812506 55.04874998 325 54 C325.99 55.65 326.98 57.3 328 59 C327.01 59 326.02 59 325 59 C325 58.34 325 57.68 325 57 C324.01 57 323.02 57 322 57 C321.67 58.32 321.34 59.64 321 61 C320.195625 60.979375 319.39125 60.95875 318.5625 60.9375 C316.06645115 60.70366379 316.06645115 60.70366379 315 62 C314.89949758 64.94708569 314.86130428 67.86563802 314.875 70.8125 C314.87113281 71.63298828 314.86726563 72.45347656 314.86328125 73.29882812 C314.86457031 74.09353516 314.86585938 74.88824219 314.8671875 75.70703125 C314.86831543 76.4338208 314.86944336 77.16061035 314.87060547 77.90942383 C314.93600367 80.04105529 314.93600367 80.04105529 315.57080078 82.20581055 C315.71243652 82.79789307 315.85407227 83.38997559 316 84 C315.505 84.495 315.505 84.495 315 85 C315.08937803 86.52519276 315.24537146 88.04681929 315.4375 89.5625 C315.53933594 90.38878906 315.64117187 91.21507812 315.74609375 92.06640625 C315.82988281 92.70449219 315.91367187 93.34257812 316 94 C316.66 94 317.32 94 318 94 C318 94.66 318 95.32 318 96 C318.99 96 319.98 96 321 96 C321 95.34 321 94.68 321 94 C320.34 94 319.68 94 319 94 C319 93.01 319 92.02 319 91 C319.66 91 320.32 91 321 91 C320.67 89.68 320.34 88.36 320 87 C321.98 86.01 321.98 86.01 324 85 C324.33 85.66 324.66 86.32 325 87 C324.01 87.495 324.01 87.495 323 88 C324.32 88.33 325.64 88.66 327 89 C327 88.34 327 87.68 327 87 C328.98 86.505 328.98 86.505 331 86 C331 85.01 331 84.02 331 83 C331.66 83 332.32 83 333 83 C331.625 85.5 331.625 85.5 330 88 C329.34 88 328.68 88 328 88 C328.33 89.32 328.66 90.64 329 92 C326.525 92.99 326.525 92.99 324 94 C326.71549154 96.30671915 326.71549154 96.30671915 329.1875 95.625 C330.0846875 95.315625 330.0846875 95.315625 331 95 C331 95.66 331 96.32 331 97 C332.98 96.01 332.98 96.01 335 95 C335 81.47 335 67.94 335 54 C331.31622777 55.57836298 331.31622777 55.57836298 330 57 C330.3125 55.0625 330.3125 55.0625 331 53 C332.485 52.505 332.485 52.505 334 52 C335.66127775 48.67744449 335.14161724 44.96065571 335.1328125 41.30859375 C335.13376923 40.44814957 335.13472595 39.58770538 335.13571167 38.70118713 C335.13639265 36.88127571 335.13454409 35.06136185 335.13037109 33.24145508 C335.12501517 30.44542021 335.1303222 27.64954552 335.13671875 24.85351562 C335.13605808 23.08854131 335.13477715 21.3235671 335.1328125 19.55859375 C335.13483673 18.71695175 335.13686096 17.87530975 335.13894653 17.00816345 C335.4969681 13.19603457 335.4969681 13.19603457 334 10 C332.31391034 9.92794489 330.62499341 9.91613932 328.9375 9.9375 C328.01839844 9.94652344 327.09929687 9.95554687 326.15234375 9.96484375 C325.44207031 9.97644531 324.73179687 9.98804687 324 10 Z M339 10 C337.31483984 14.5284342 337.31483984 14.5284342 338 26 C351.53 26 365.06 26 379 26 C379 21.05 379 16.1 379 11 C378.01964485 9.79902317 378.01964485 9.79902317 376.17407227 9.88647461 C375.00702759 9.89432983 375.00702759 9.89432983 373.81640625 9.90234375 C372.54893555 9.90717773 372.54893555 9.90717773 371.25585938 9.91210938 C370.36705078 9.92048828 369.47824219 9.92886719 368.5625 9.9375 C367.23508789 9.94426758 367.23508789 9.94426758 365.88085938 9.95117188 C364.23900025 9.95992512 362.59714995 9.97071918 360.95532227 9.98413086 C353.63761408 10.04352043 346.3179199 10 339 10 Z M315 14 C315 15.32 315 16.64 315 18 C315.66 18 316.32 18 317 18 C316.34 16.68 315.68 15.36 315 14 Z M202 17 C202 23.93 202 30.86 202 38 C205.76624671 39.25541557 207.37188934 38.37061958 211 37 C211 36.34 211 35.68 211 35 C211.66 35 212.32 35 213 35 C211.47017797 30.74693457 209.31799136 27.00735822 206.9375 23.1875 C206.57333984 22.59001953 206.20917969 21.99253906 205.83398438 21.37695312 C204.91993746 19.89859629 203.96364025 18.44651932 203 17 C202.67 17 202.34 17 202 17 Z M301 18 C300.443125 18.99257812 299.88625 19.98515625 299.3125 21.0078125 C298.94697021 21.65685547 298.58144043 22.30589844 298.20483398 22.97460938 C297.39052 24.42799895 296.58290015 25.88515634 295.78149414 27.34570312 C293.87170465 30.80240339 291.95938359 34.14976089 289.62109375 37.3359375 C282.4511283 47.72533288 283.2319056 57.66086144 283.98657227 69.90551758 C283.99100342 70.59669678 283.99543457 71.28787598 284 72 C283.505 72.495 283.505 72.495 283 73 C282.91273777 74.78071246 282.89300959 76.5648314 282.90234375 78.34765625 C282.90556641 79.42724609 282.90878906 80.50683594 282.91210938 81.61914062 C282.92048828 82.75544922 282.92886719 83.89175781 282.9375 85.0625 C282.94201172 86.20267578 282.94652344 87.34285156 282.95117188 88.51757812 C282.9630024 91.34507418 282.9809385 94.17254345 283 97 C289.27 97 295.54 97 302 97 C302 70.93 302 44.86 302 18 C301.67 18 301.34 18 301 18 Z M316 28 C315.67 29.32 315.34 30.64 315 32 C316.32 31.34 317.64 30.68 319 30 C318.67 29.34 318.34 28.68 318 28 C317.34 28 316.68 28 316 28 Z M315 34 C316 36 316 36 316 36 Z M320 35 C320.33 35.66 320.66 36.32 321 37 C321.66 36.67 322.32 36.34 323 36 C322.01 35.67 321.02 35.34 320 35 Z M207 40 C207 40.66 207 41.32 207 42 C205.35 42 203.7 42 202 42 C202.33 43.65 202.66 45.3 203 47 C207.95 45.68 212.9 44.36 218 43 C217.67 42.01 217.34 41.02 217 40 C215.081875 39.7215625 215.081875 39.7215625 213.125 39.4375 C212.40570313 39.33308594 211.68640625 39.22867188 210.9453125 39.12109375 C208.91859333 38.8315703 208.91859333 38.8315703 207 40 Z M232.5625 43 C229.4550059 43.87227905 227.1838892 44.19296298 224 44 C225.97950223 53.80862401 233.38314424 63.12560671 238.55102539 71.62792969 C239.70111187 73.5224223 240.84381988 75.42124236 241.98632812 77.3203125 C242.72351801 78.53672529 243.46113239 79.75288096 244.19921875 80.96875 C244.85752686 82.05607422 245.51583496 83.14339844 246.1940918 84.26367188 C247.66950653 86.49923336 249.01267962 88.23212653 251 90 C252.86089607 66.48630478 252.86089607 66.48630478 243 46 C242.50113281 45.22914062 242.00226563 44.45828125 241.48828125 43.6640625 C240.99714844 43.11492187 240.50601563 42.56578125 240 42 C236.04346339 41.81378031 236.04346339 41.81378031 232.5625 43 Z M342 43 C342.33 43.99 342.66 44.98 343 46 C341.68 45.34 340.36 44.68 339 44 C339.33 45.32 339.66 46.64 340 48 C339.34 48 338.68 48 338 48 C338 51.3 338 54.6 338 58 C338.33 57.01 338.66 56.02 339 55 C339.99 55 340.98 55 342 55 C342 55.66 342 56.32 342 57 C341.34 57 340.68 57 340 57 C340 57.66 340 58.32 340 59 C340.9590625 58.7215625 340.9590625 58.7215625 341.9375 58.4375 C342.618125 58.293125 343.29875 58.14875 344 58 C344.33 58.33 344.66 58.66 345 59 C347.03709067 59.09998685 349.07764545 59.13080986 351.1171875 59.1328125 C352.98697266 59.13474609 352.98697266 59.13474609 354.89453125 59.13671875 C356.20808594 59.13285156 357.52164062 59.12898438 358.875 59.125 C360.83373047 59.13080078 360.83373047 59.13080078 362.83203125 59.13671875 C364.08113281 59.13542969 365.33023437 59.13414062 366.6171875 59.1328125 C367.76815918 59.13168457 368.91913086 59.13055664 370.10498047 59.12939453 C373.06832086 59.12920012 373.06832086 59.12920012 376 58 C376 56.88625 376 55.7725 376 54.625 C376 51.08333333 376 47.54166667 376 44 C373.44276771 42.72138385 371.63262898 42.88663391 368.7734375 42.90234375 C367.2265625 42.90717773 367.2265625 42.90717773 365.6484375 42.91210938 C364.56820313 42.92048828 363.48796875 42.92886719 362.375 42.9375 C361.28703125 42.94201172 360.1990625 42.94652344 359.078125 42.95117188 C356.38536211 42.96298224 353.69270812 42.97945222 351 43 C351 43.66 351 44.32 351 45 C346.545 44.01 346.545 44.01 342 43 Z M210 46 C209.67 46.66 209.34 47.32 209 48 C208.030625 47.979375 207.06125 47.95875 206.0625 47.9375 C203.12534105 47.64381501 203.12534105 47.64381501 202 49 C201.90695982 50.47354348 201.88253735 51.95150591 201.88647461 53.42797852 C201.88655014 54.36887833 201.88662567 55.30977814 201.88670349 56.27919006 C201.89186478 57.30209641 201.89702606 58.32500275 201.90234375 59.37890625 C201.9037587 60.42070541 201.90517365 61.46250458 201.90663147 62.53587341 C201.9122492 65.87811094 201.9248047 69.22028257 201.9375 72.5625 C201.94251272 74.82226466 201.94707602 77.08203037 201.95117188 79.34179688 C201.96222439 84.89455391 201.97897976 90.44727225 202 96 C205.76300374 97.25433458 209.27210909 97.10695422 213.1875 97.0625 C213.93708984 97.05798828 214.68667969 97.05347656 215.45898438 97.04882812 C217.30602383 97.03706354 219.15302213 97.01912865 221 97 C221.12673206 90.23750813 221.21432235 83.47532217 221.2746582 76.71191406 C221.29980906 74.4110164 221.33393396 72.11019868 221.37719727 69.80957031 C221.43782147 66.50305467 221.46620441 63.19759479 221.48828125 59.890625 C221.51408768 58.86132874 221.5398941 57.83203247 221.56648254 56.77154541 C221.6837725 50.97471962 221.6837725 50.97471962 218.53198242 46.31933594 C215.18481687 44.57523386 213.6812546 45.07968635 210 46 Z M342 81 C341.69578125 81.94875 341.3915625 82.8975 341.078125 83.875 C340 87 340 87 338.75 89 C337.60541288 92.05223233 338.80815473 94.08660046 340 97 C341.32 96.67 342.64 96.34 344 96 C343.7525 94.9171875 343.7525 94.9171875 343.5 93.8125 C343.02412881 91.13572455 342.922557 88.71050513 343 86 C344.85776765 89.13498292 345.20140476 91.37471432 345 95 C347.31 95 349.62 95 352 95 C352 95.66 352 96.32 352 97 C353.32 97 354.64 97 356 97 C356 96.01 356 95.02 356 94 C357.9375 94.375 357.9375 94.375 360 95 C360.33 95.66 360.66 96.32 361 97 C366.94 97 372.88 97 379 97 C379.79312594 93.03437032 380.08824548 89.97104679 380 86 C380 84.33333333 380 82.66666667 380 81 C379.01257813 81 378.02515625 81 377.0078125 81 C365.33854167 81 353.66927083 81 342 81 Z M338 84 C339 86 339 86 339 86 Z M357 94 C357 94.99 357 95.98 357 97 C357.66 97 358.32 97 359 97 C358.67 96.01 358.34 95.02 358 94 C357.67 94 357.34 94 357 94 Z " fill="#A9BD46" transform="translate(0,75)"/>
<path d="M0 0 C0 0.66 0 1.32 0 2 C0.40379883 1.50870605 0.80759766 1.01741211 1.22363281 0.51123047 C3.4792274 -1.40769896 4.50295775 -1.32424225 7.421875 -1.1796875 C8.28296875 -1.1384375 9.1440625 -1.0971875 10.03125 -1.0546875 C11.37703125 -0.96574219 11.37703125 -0.96574219 12.75 -0.875 C13.63171875 -0.83890625 14.5134375 -0.8028125 15.421875 -0.765625 C23.41272508 -0.31376145 29.65432896 1.89250867 36 7 C36 8.32 36 9.64 36 11 C36.66 11 37.32 11 38 11 C39.52150158 14.04300316 39.23899393 16.654085 39 20 C38.01 20.66 37.02 21.32 36 22 C37.32 22.33 38.64 22.66 40 23 C38.41945289 30.41641337 38.41945289 30.41641337 36.5625 33 C35 34 35 34 32 34 C32 34.66 32 35.32 32 36 C31.01 36.33 30.02 36.66 29 37 C29.62648438 37.30292969 30.25296875 37.60585937 30.8984375 37.91796875 C37.68463836 41.39669948 37.68463836 41.39669948 39.4375 44.75 C39.623125 45.4925 39.80875 46.235 40 47 C40.99 47.495 40.99 47.495 42 48 C43.57407504 53.82407765 43.08713994 60.01639051 43 66 C41.515 66.495 41.515 66.495 40 67 C40 67.99 40 68.98 40 70 C39.34 70 38.68 70 38 70 C38 70.99 38 71.98 38 73 C30.65927579 79.71151928 19.45612717 80.39026915 9.94921875 80.10546875 C9.30597656 80.07066406 8.66273438 80.03585937 8 80 C8 79.01 8 78.02 8 77 C8.99 77 9.98 77 11 77 C11 76.34 11 75.68 11 75 C10.01 74.505 10.01 74.505 9 74 C9.33 73.67 9.66 73.34 10 73 C8.68 72.34 7.36 71.68 6 71 C6.33 69.68 6.66 68.36 7 67 C8.32 67.33 9.64 67.66 11 68 C10.505 69.485 10.505 69.485 10 71 C10.66 71 11.32 71 12 71 C12.495 69.515 12.495 69.515 13 68 C13.66 68 14.32 68 15 68 C15 67.34 15 66.68 15 66 C16.64333504 64.96210419 18.31243867 63.96432076 20 63 C20.66 62.34 21.32 61.68 22 61 C22.33 61 22.66 61 23 61 C22.67 60.01 22.34 59.02 22 58 C22.33333333 56 22.66666667 54 23 52 C22.67 51.01 22.34 50.02 22 49 C22.33 48.01 22.66 47.02 23 46 C24.65 46.33 26.3 46.66 28 47 C26.68 46.34 25.36 45.68 24 45 C24 44.34 24 43.68 24 43 C23.34 43.66 22.68 44.32 22 45 C17.52423676 45.30344158 14.5115846 45.15095939 10.1875 43.875 C8.6096875 43.441875 8.6096875 43.441875 7 43 C6.01 43.66 5.02 44.32 4 45 C1.95703125 45.1953125 1.95703125 45.1953125 -0.1875 45.125 C-1.445625 45.08375 -2.70375 45.0425 -4 45 C-2.68 45.66 -1.36 46.32 0 47 C-0.02320313 48.22976563 -0.04640625 49.45953125 -0.0703125 50.7265625 C-0.08908039 52.3593689 -0.10727949 53.9921819 -0.125 55.625 C-0.14175781 56.43324219 -0.15851563 57.24148438 -0.17578125 58.07421875 C-0.21406185 62.78273315 0.09495609 66.60058206 2 71 C2.495 71.495 2.99 71.99 3.5 72.5 C5 74 5 74 7 80 C-1.58 80 -10.16 80 -19 80 C-19.62480519 70.86222407 -20.1037908 61.78472469 -20.125 52.625 C-20.13176758 51.4042981 -20.13176758 51.4042981 -20.13867188 50.15893555 C-20.13027475 46.8522175 -20.05280042 44.15840126 -19 41 C-18.01 41 -17.02 41 -16 41 C-17.32 40.67 -18.64 40.34 -20 40 C-20.24160685 38.13617575 -20.48038776 36.27195293 -20.70703125 34.40625 C-20.9024999 32.80080078 -21.10825426 31.1965708 -21.32421875 29.59375 C-22.22108592 22.23245064 -22.72029847 14.65098257 -19 8 C-19.99 8 -20.98 8 -22 8 C-22 5.36 -22 2.72 -22 0 C-19.64628886 -0.1968999 -17.2925305 -0.38270974 -14.9375 -0.5625 C-13.62652344 -0.66691406 -12.31554687 -0.77132812 -10.96484375 -0.87890625 C-7.07674103 -0.99765619 -3.80889777 -0.66866216 0 0 Z M17 5 C17.33 5.66 17.66 6.32 18 7 C18.99 7 19.98 7 21 7 C21 7.66 21 8.32 21 9 C21.66 9 22.32 9 23 9 C22.67 7.68 22.34 6.36 22 5 C20.35 5 18.7 5 17 5 Z M25 7 C25 7.66 25 8.32 25 9 C25.99 8.67 26.98 8.34 28 8 C27.01 7.67 26.02 7.34 25 7 Z M29 8 C29 8.99 29 9.98 29 11 C29.66 11 30.32 11 31 11 C31 10.01 31 9.02 31 8 C30.34 8 29.68 8 29 8 Z M-12 9 C-12 9.66 -12 10.32 -12 11 C-11.34 10.67 -10.68 10.34 -10 10 C-10.66 9.67 -11.32 9.34 -12 9 Z M33 9 C34 11 34 11 34 11 Z M-7 10 C-7.33 10.66 -7.66 11.32 -8 12 C-7.34 12 -6.68 12 -6 12 C-6.33 11.34 -6.66 10.68 -7 10 Z M-1 11 C-2.20217503 13.40435006 -2.03897118 14.68381369 -1.87890625 17.3515625 C-1.83056641 18.20234375 -1.78222656 19.053125 -1.73242188 19.9296875 C-1.67634766 20.81914062 -1.62027344 21.70859375 -1.5625 22.625 C-1.51029297 23.5221875 -1.45808594 24.419375 -1.40429688 25.34375 C-1.2744565 27.56284012 -1.13948661 29.78149871 -1 32 C4.83195876 33.94398625 11.05203681 32.88854461 16.5625 30.375 C19.76062195 27.25888118 20.62783017 25.46603797 21 21 C19.45038832 16.95785254 17.58339166 13.8457365 13.7109375 11.77734375 C10.58164801 10.88004028 7.93771655 10.80356667 4.6875 10.875 C3.61886719 10.89304688 2.55023438 10.91109375 1.44921875 10.9296875 C0.23685547 10.96449219 0.23685547 10.96449219 -1 11 Z M-6 28 C-6 28.66 -6 29.32 -6 30 C-5.01 29.67 -4.02 29.34 -3 29 C-3.99 28.67 -4.98 28.34 -6 28 Z M24 29 C24.66 29.66 25.32 30.32 26 31 C26 30.34 26 29.68 26 29 C25.34 29 24.68 29 24 29 Z M10 33 C9.01 34.98 8.02 36.96 7 39 C5.35 38.67 3.7 38.34 2 38 C4.39509338 40.89932357 6.31245243 41.50168276 10 42 C10 41.01 10 40.02 10 39 C12.31 39 14.62 39 17 39 C14.18490007 36.7226499 14.18490007 36.7226499 11 37 C10.67 35.68 10.34 34.36 10 33 Z M21 34 C21 34.99 21 35.98 21 37 C20.01 36.67 19.02 36.34 18 36 C18 36.99 18 37.98 18 39 C18.99 39 19.98 39 21 39 C21.66 39.66 22.32 40.32 23 41 C22.67 38.69 22.34 36.38 22 34 C21.67 34 21.34 34 21 34 Z M31 47 C31.33 47.66 31.66 48.32 32 49 C33.32 49 34.64 49 36 49 C35.67 48.34 35.34 47.68 35 47 C33.68 47 32.36 47 31 47 Z M-12 49 C-12 49.66 -12 50.32 -12 51 C-10.02 51.99 -10.02 51.99 -8 53 C-7.67 51.68 -7.34 50.36 -7 49 C-8.65 49 -10.3 49 -12 49 Z M-3 49 C-2.34 49.66 -1.68 50.32 -1 51 C-1 50.34 -1 49.68 -1 49 C-1.66 49 -2.32 49 -3 49 Z M27 52 C27.66 52.66 28.32 53.32 29 54 C29 53.34 29 52.68 29 52 C28.34 52 27.68 52 27 52 Z M-13 53 C-13 56 -13 56 -13 56 Z M-19 55 C-18 57 -18 57 -18 57 Z M-3 57 C-2 59 -2 59 -2 59 Z M-6 58 C-6.99 58.66 -7.98 59.32 -9 60 C-7.68 60 -6.36 60 -5 60 C-5.33 59.34 -5.66 58.68 -6 58 Z M30 60 C30 60.66 30 61.32 30 62 C31.9600281 63.63676257 31.9600281 63.63676257 34 65 C33.67 63.35 33.34 61.7 33 60 C32.01 60 31.02 60 30 60 Z M-3 64 C-2 66 -2 66 -2 66 Z M26 64 C26.33 65.32 26.66 66.64 27 68 C27.99 67.67 28.98 67.34 30 67 C29.34 67 28.68 67 28 67 C28 66.01 28 65.02 28 64 C27.34 64 26.68 64 26 64 Z M-10.625 68.5 C-11.07875 68.995 -11.5325 69.49 -12 70 C-11.67 70.66 -11.34 71.32 -11 72 C-10.34 71.67 -9.68 71.34 -9 71 C-9 70.34 -9 69.68 -9 69 C-8.34 69 -7.68 69 -7 69 C-7 68.34 -7 67.68 -7 67 C-9.12364481 66.77390663 -9.12364481 66.77390663 -10.625 68.5 Z M-2 67 C-1 69 -1 69 -1 69 Z M-3 71 C-3 74 -3 74 -3 74 Z M26 71 C26 72.32 26 73.64 26 75 C26.33 73.68 26.66 72.36 27 71 C26.67 71 26.34 71 26 71 Z M12 72 C11.67 72.66 11.34 73.32 11 74 C13.64738916 75.4606285 14.89448334 76 18 76 C17.05270463 73.84188612 17.05270463 73.84188612 15 72 C14.01 72 13.02 72 12 72 Z M0 75 C0 75.66 0 76.32 0 77 C0.66 77 1.32 77 2 77 C2 76.34 2 75.68 2 75 C1.34 75 0.68 75 0 75 Z " fill="#98AD3A" transform="translate(343,213)"/>
<path d="M0 0 C1.14662109 -0.02416992 1.14662109 -0.02416992 2.31640625 -0.04882812 C7.91538831 -0.05358108 11.97943468 1.11194973 17.125 3.3125 C17.7756543 3.54984863 18.42630859 3.78719727 19.09667969 4.03173828 C23.816377 5.81282467 23.816377 5.81282467 25.4375 8.4375 C25.7778125 9.365625 25.7778125 9.365625 26.125 10.3125 C26.785 10.6425 27.445 10.9725 28.125 11.3125 C28.125 12.6325 28.125 13.9525 28.125 15.3125 C28.785 15.6425 29.445 15.9725 30.125 16.3125 C31.57012404 19.9253101 32.125 22.37937842 32.125 26.3125 C28.64585059 26.34137814 25.16673169 26.35925687 21.6875 26.375 C20.19766602 26.38756836 20.19766602 26.38756836 18.67773438 26.40039062 C17.26137695 26.40522461 17.26137695 26.40522461 15.81640625 26.41015625 C14.50458374 26.41801147 14.50458374 26.41801147 13.16625977 26.42602539 C11.125 26.3125 11.125 26.3125 10.125 25.3125 C10.00125 24.19875 9.8775 23.085 9.75 21.9375 C9.0698468 17.82825745 9.0698468 17.82825745 6.125 15.3125 C3.67822217 14.98740666 3.67822217 14.98740666 1.0625 15.1875 C-3.70495951 15.39752024 -3.70495951 15.39752024 -5.875 14.3125 C-5.99875 15.055 -6.1225 15.7975 -6.25 16.5625 C-6.875 19.3125 -6.875 19.3125 -7.88818359 21.06347656 C-9.22416053 24.1082612 -9.20173341 26.72836974 -9.2890625 30.046875 C-9.32773438 31.34238281 -9.36640625 32.63789063 -9.40625 33.97265625 C-9.43770267 35.33593284 -9.46895007 36.69921418 -9.5 38.0625 C-9.53820469 39.44143028 -9.57725787 40.82033734 -9.6171875 42.19921875 C-9.71148004 45.57017718 -9.7970822 48.94112978 -9.875 52.3125 C-9.215 52.6425 -8.555 52.9725 -7.875 53.3125 C-8.865 55.7875 -8.865 55.7875 -9.875 58.3125 C-9.215 58.3125 -8.555 58.3125 -7.875 58.3125 C-7.75125 58.910625 -7.6275 59.50875 -7.5 60.125 C-6.92024015 62.57481348 -6.92024015 62.57481348 -4.875 65.3125 C-1.31827821 66.5313121 -1.31827821 66.5313121 2.125 67.3125 C2.125 67.9725 2.125 68.6325 2.125 69.3125 C2.785 69.3125 3.445 69.3125 4.125 69.3125 C3.795 68.3225 3.465 67.3325 3.125 66.3125 C3.455 65.9825 3.785 65.6525 4.125 65.3125 C5.775 65.3125 7.425 65.3125 9.125 65.3125 C9.785 60.6925 10.445 56.0725 11.125 51.3125 C25.51104144 51.16419029 25.51104144 51.16419029 31.125 52.3125 C32.125 53.3125 32.125 53.3125 32.14453125 55.31640625 C31.44158935 64.00370713 29.26572312 69.5324787 23 75.6875 C16.93467274 80.79198334 10.82303525 81.42169199 3.125 81.3125 C3.125 80.6525 3.125 79.9925 3.125 79.3125 C2.465 79.3125 1.805 79.3125 1.125 79.3125 C1.125 79.9725 1.125 80.6325 1.125 81.3125 C-6.87594085 81.89438661 -12.38082675 79.73702838 -18.9375 75.1875 C-19.576875 74.56875 -20.21625 73.95 -20.875 73.3125 C-20.875 72.6525 -20.875 71.9925 -20.875 71.3125 C-20.215 71.3125 -19.555 71.3125 -18.875 71.3125 C-18.875 70.6525 -18.875 69.9925 -18.875 69.3125 C-20.855 69.8075 -20.855 69.8075 -22.875 70.3125 C-26.578887 65.53329097 -27.36614138 62.31703168 -27.875 56.3125 C-28.205 55.9825 -28.535 55.6525 -28.875 55.3125 C-29.02956568 52.73541444 -29.10672843 50.20357479 -29.125 47.625 C-29.145625 46.91666016 -29.16625 46.20832031 -29.1875 45.47851562 C-29.22299315 40.67363006 -28.40170979 37.53476504 -25.875 33.3125 C-26.865 32.9825 -27.855 32.6525 -28.875 32.3125 C-28.44545059 26.06142565 -27.86098493 20.27045479 -25.875 14.3125 C-24.555 13.9825 -23.235 13.6525 -21.875 13.3125 C-22.019375 12.61125 -22.16375 11.91 -22.3125 11.1875 C-21.71862989 7.28492502 -19.9241544 6.11389893 -16.9921875 3.64453125 C-11.54877407 0.21980066 -6.23136149 -0.02600735 0 0 Z M5.125 2.3125 C4.135 2.6425 3.145 2.9725 2.125 3.3125 C2.125 3.9725 2.125 4.6325 2.125 5.3125 C0.475 4.9825 -1.175 4.6525 -2.875 4.3125 C-1.48167426 7.67970387 0.1039286 9.2984524 3.125 11.3125 C3.455 10.3225 3.785 9.3325 4.125 8.3125 C3.465 8.3125 2.805 8.3125 2.125 8.3125 C2.455 6.9925 2.785 5.6725 3.125 4.3125 C4.445 3.9825 5.765 3.6525 7.125 3.3125 C6.465 2.9825 5.805 2.6525 5.125 2.3125 Z M-7.875 5.3125 C-8.205 6.6325 -8.535 7.9525 -8.875 9.3125 C-7.885 9.8075 -7.885 9.8075 -6.875 10.3125 C-6.875 8.6625 -6.875 7.0125 -6.875 5.3125 C-7.205 5.3125 -7.535 5.3125 -7.875 5.3125 Z M-18.875 7.3125 C-19.205 7.9725 -19.535 8.6325 -19.875 9.3125 C-19.215 9.3125 -18.555 9.3125 -17.875 9.3125 C-18.205 8.6525 -18.535 7.9925 -18.875 7.3125 Z M15.125 7.3125 C13.145 8.6325 11.165 9.9525 9.125 11.3125 C9.455 12.3025 9.785 13.2925 10.125 14.3125 C10.785 13.6525 11.445 12.9925 12.125 12.3125 C14.25 11.6875 14.25 11.6875 16.125 11.3125 C15.795 9.9925 15.465 8.6725 15.125 7.3125 Z M16.125 13.3125 C16.125 13.9725 16.125 14.6325 16.125 15.3125 C17.115 14.9825 18.105 14.6525 19.125 14.3125 C18.135 13.9825 17.145 13.6525 16.125 13.3125 Z M10.125 14.3125 C11.125 17.3125 11.125 17.3125 11.125 17.3125 Z M-20.875 30.3125 C-21.205 30.9725 -21.535 31.6325 -21.875 32.3125 C-21.215 32.3125 -20.555 32.3125 -19.875 32.3125 C-20.205 31.6525 -20.535 30.9925 -20.875 30.3125 Z M-14.875 38.3125 C-13.875 40.3125 -13.875 40.3125 -13.875 40.3125 Z M-25.875 46.3125 C-25.545 47.6325 -25.215 48.9525 -24.875 50.3125 C-23.885 50.3125 -22.895 50.3125 -21.875 50.3125 C-21.875 50.9725 -21.875 51.6325 -21.875 52.3125 C-20.885 51.9825 -19.895 51.6525 -18.875 51.3125 C-18.875 49.0025 -18.875 46.6925 -18.875 44.3125 C-21.98051666 44.3125 -23.22761084 44.8518715 -25.875 46.3125 Z M12.125 64.3125 C13.125 66.3125 13.125 66.3125 13.125 66.3125 Z M-9.875 69.3125 C-8.885 69.6425 -7.895 69.9725 -6.875 70.3125 C-6.875 70.9725 -6.875 71.6325 -6.875 72.3125 C-7.865 71.9825 -8.855 71.6525 -9.875 71.3125 C-10.865 71.9725 -11.855 72.6325 -12.875 73.3125 C-11.35509222 75.04177975 -11.35509222 75.04177975 -8.875 76.3125 C-6.10062457 76.28073234 -3.62213533 75.81614148 -0.875 75.3125 C-0.875 73.9925 -0.875 72.6725 -0.875 71.3125 C-4.24597383 69.81428941 -6.07942119 69.3125 -9.875 69.3125 Z M6.125 70.3125 C6.455 70.9725 6.785 71.6325 7.125 72.3125 C7.455 71.6525 7.785 70.9925 8.125 70.3125 C7.465 70.3125 6.805 70.3125 6.125 70.3125 Z M10.125 71.3125 C10.125 72.9625 10.125 74.6125 10.125 76.3125 C11.445 76.3125 12.765 76.3125 14.125 76.3125 C13.85823796 74.32758358 13.85823796 74.32758358 13.125 72.3125 C12.135 71.9825 11.145 71.6525 10.125 71.3125 Z M5.125 72.3125 C5.125 72.9725 5.125 73.6325 5.125 74.3125 C3.145 74.6425 1.165 74.9725 -0.875 75.3125 C-0.545 75.9725 -0.215 76.6325 0.125 77.3125 C2.65233235 77.96805119 2.65233235 77.96805119 5.125 78.3125 C5.455 76.3325 5.785 74.3525 6.125 72.3125 C5.795 72.3125 5.465 72.3125 5.125 72.3125 Z " fill="#98AD3A" transform="translate(150.875,211.6875)"/>
<path d="M0 0 C0.80179687 0.00451172 1.60359375 0.00902344 2.4296875 0.01367188 C4.41149006 0.02546832 6.39325433 0.04340395 8.375 0.0625 C9.711366 25.59284827 9.711366 25.59284827 8.53125 37.3671875 C8.20220386 40.16178108 8.20220386 40.16178108 9.375 43.0625 C9.49820587 45.82460374 9.56013929 48.55046459 9.5625 51.3125 C9.57474609 52.05113281 9.58699219 52.78976562 9.59960938 53.55078125 C9.61252662 58.4334987 8.92532324 62.42991357 7.375 67.0625 C6.715 67.0625 6.055 67.0625 5.375 67.0625 C5.313125 67.619375 5.25125 68.17625 5.1875 68.75 C4.03625177 72.02662957 1.89340336 73.72837006 -0.625 76.0625 C-1.285 76.7225 -1.945 77.3825 -2.625 78.0625 C-5.0078125 78.4765625 -5.0078125 78.4765625 -7.75 78.6875 C-9.11511719 78.79964844 -9.11511719 78.79964844 -10.5078125 78.9140625 C-11.20648438 78.96304688 -11.90515625 79.01203125 -12.625 79.0625 C-12.625 79.7225 -12.625 80.3825 -12.625 81.0625 C-15.81242115 81.12115035 -18.99970118 81.15631259 -22.1875 81.1875 C-23.53038086 81.21263672 -23.53038086 81.21263672 -24.90039062 81.23828125 C-30.2021573 81.27712203 -34.6511513 80.9719238 -39.625 79.0625 C-39.955 78.4025 -40.285 77.7425 -40.625 77.0625 C-39.3125 75.5625 -39.3125 75.5625 -37.625 74.0625 C-36.635 74.0625 -35.645 74.0625 -34.625 74.0625 C-34.625 73.4025 -34.625 72.7425 -34.625 72.0625 C-32.975 72.3925 -31.325 72.7225 -29.625 73.0625 C-29.955 70.7525 -30.285 68.4425 -30.625 66.0625 C-28.645 65.5675 -28.645 65.5675 -26.625 65.0625 C-26.295 66.7125 -25.965 68.3625 -25.625 70.0625 C-25.39039063 69.41796875 -25.15578125 68.7734375 -24.9140625 68.109375 C-23.625 66.0625 -23.625 66.0625 -21.4609375 65.453125 C-20.64882813 65.40671875 -19.83671875 65.3603125 -19 65.3125 C-17.77410156 65.22742188 -17.77410156 65.22742188 -16.5234375 65.140625 C-15.89695312 65.11484375 -15.27046875 65.0890625 -14.625 65.0625 C-14.295 64.0725 -13.965 63.0825 -13.625 62.0625 C-12.965 62.0625 -12.305 62.0625 -11.625 62.0625 C-10.90243171 57.58116426 -10.90243171 57.58116426 -10.625 53.0625 C-10.61976318 52.25119629 -10.61452637 51.43989258 -10.60913086 50.60400391 C-10.58833001 47.29851172 -10.57538348 43.99303207 -10.5625 40.6875 C-10.55412109 39.53765625 -10.54574219 38.3878125 -10.53710938 37.203125 C-10.53388672 36.09710938 -10.53066406 34.99109375 -10.52734375 33.8515625 C-10.52210693 32.83787598 -10.51687012 31.82418945 -10.51147461 30.77978516 C-10.61325446 28.34363526 -11.01582431 26.40295478 -11.625 24.0625 C-11.71452213 22.51106455 -11.75561557 20.95635834 -11.7578125 19.40234375 C-11.75910156 18.52642578 -11.76039063 17.65050781 -11.76171875 16.74804688 C-11.75785156 15.84119141 -11.75398438 14.93433594 -11.75 14 C-11.75580078 12.63391602 -11.75580078 12.63391602 -11.76171875 11.24023438 C-11.76042969 10.36560547 -11.75914062 9.49097656 -11.7578125 8.58984375 C-11.75668457 7.79312256 -11.75555664 6.99640137 -11.75439453 6.17553711 C-11.625 4.0625 -11.625 4.0625 -10.625 1.0625 C-7.31505287 -0.59247356 -3.63377 -0.03834335 0 0 Z M-0.625 10.0625 C-0.625 10.7225 -0.625 11.3825 -0.625 12.0625 C0.035 11.7325 0.695 11.4025 1.375 11.0625 C0.715 10.7325 0.055 10.4025 -0.625 10.0625 Z M0.375 16.0625 C1.375 18.0625 1.375 18.0625 1.375 18.0625 Z M1.375 26.0625 C1.045 26.7225 0.715 27.3825 0.375 28.0625 C2.355 27.7325 4.335 27.4025 6.375 27.0625 C6.375 26.7325 6.375 26.4025 6.375 26.0625 C4.725 26.0625 3.075 26.0625 1.375 26.0625 Z M-8.625 28.0625 C-8.625 28.7225 -8.625 29.3825 -8.625 30.0625 C-7.305 29.4025 -5.985 28.7425 -4.625 28.0625 C-5.945 28.0625 -7.265 28.0625 -8.625 28.0625 Z M-3.625 28.0625 C-3.295 29.0525 -2.965 30.0425 -2.625 31.0625 C-2.295 30.0725 -1.965 29.0825 -1.625 28.0625 C-2.285 28.0625 -2.945 28.0625 -3.625 28.0625 Z M-2.625 40.0625 C-2.625 40.7225 -2.625 41.3825 -2.625 42.0625 C-1.965 42.0625 -1.305 42.0625 -0.625 42.0625 C-0.625 41.4025 -0.625 40.7425 -0.625 40.0625 C-1.285 40.0625 -1.945 40.0625 -2.625 40.0625 Z M3.375 42.0625 C2.385 43.0525 1.395 44.0425 0.375 45.0625 C2.025 44.4025 3.675 43.7425 5.375 43.0625 C4.715 42.7325 4.055 42.4025 3.375 42.0625 Z M-3.625 48.0625 C-3.955 48.7225 -4.285 49.3825 -4.625 50.0625 C-3.635 49.7325 -2.645 49.4025 -1.625 49.0625 C-2.285 48.7325 -2.945 48.4025 -3.625 48.0625 Z M-8.625 51.0625 C-8.625 51.7225 -8.625 52.3825 -8.625 53.0625 C-7.635 52.7325 -6.645 52.4025 -5.625 52.0625 C-6.615 51.7325 -7.605 51.4025 -8.625 51.0625 Z M1.375 59.0625 C1.375 59.7225 1.375 60.3825 1.375 61.0625 C2.035 61.0625 2.695 61.0625 3.375 61.0625 C3.375 60.4025 3.375 59.7425 3.375 59.0625 C2.715 59.0625 2.055 59.0625 1.375 59.0625 Z M-7.625 64.0625 C-6.965 64.7225 -6.305 65.3825 -5.625 66.0625 C-5.625 65.4025 -5.625 64.7425 -5.625 64.0625 C-6.285 64.0625 -6.945 64.0625 -7.625 64.0625 Z M-28.625 74.0625 C-28.295 75.0525 -27.965 76.0425 -27.625 77.0625 C-27.295 76.0725 -26.965 75.0825 -26.625 74.0625 C-27.285 74.0625 -27.945 74.0625 -28.625 74.0625 Z " fill="#98AD3A" transform="translate(305.625,211.9375)"/>
<path d="M0 0 C0.66 0 1.32 0 2 0 C2 1.65 2 3.3 2 5 C1.01 5.495 1.01 5.495 0 6 C0.33 6.66 0.66 7.32 1 8 C1.07065617 10.04055005 1.08421976 12.08334257 1.0625 14.125 C1.05347656 15.22070312 1.04445312 16.31640625 1.03515625 17.4453125 C1.02355469 18.28835937 1.01195312 19.13140625 1 20 C-0.65 20 -2.3 20 -4 20 C-4 20.66 -4 21.32 -4 22 C-5.9375 21.25 -5.9375 21.25 -8 20 C-8.75 17.875 -8.75 17.875 -9 16 C-9.99 16.33 -10.98 16.66 -12 17 C-12.73323796 19.01508358 -12.73323796 19.01508358 -13 21 C-7.40693931 23.05459372 -4.59306069 23.05459372 1 21 C3.67086809 29.73168413 2.53068096 37.16914831 1 46 C1.58491211 45.96447021 2.16982422 45.92894043 2.77246094 45.89233398 C5.43130849 45.7343957 8.09060123 45.58585489 10.75 45.4375 C12.13058594 45.35338867 12.13058594 45.35338867 13.5390625 45.26757812 C14.42851562 45.21923828 15.31796875 45.17089844 16.234375 45.12109375 C17.05131836 45.0739624 17.86826172 45.02683105 18.70996094 44.97827148 C21.01401946 45.00013302 22.83166953 45.22272492 25 46 C25.33 46.66 25.66 47.32 26 48 C26.639375 47.505 27.27875 47.01 27.9375 46.5 C33.12289381 43.96021528 38.52089963 44.45939128 44 46 C44 46.66 44 47.32 44 48 C43.34 48 42.68 48 42 48 C42.495 50.475 42.495 50.475 43 53 C40.525 53.495 40.525 53.495 38 54 C38 55.32 38 56.64 38 58 C38.66 57.01 39.32 56.02 40 55 C40.99 55 41.98 55 43 55 C43.495 57.97 43.495 57.97 44 61 C35.16393827 62.12616473 26.65787823 61.85442773 17.80859375 61.25390625 C15.54251508 61.10283434 13.27110881 61 11 61 C2.33333333 61 -6.33333333 61 -15 61 C-15.19964355 59.8855249 -15.19964355 59.8855249 -15.40332031 58.74853516 C-15.92713329 56.33565198 -16.6286791 54.30215144 -17.546875 52.0234375 C-19.61190379 45.96149776 -19.36356732 39.96347583 -19.25 33.625 C-19.24484375 32.45066406 -19.2396875 31.27632813 -19.234375 30.06640625 C-19.15538297 21.46614891 -19.15538297 21.46614891 -18 18 C-17.92948886 15.26134713 -17.90642235 12.54972412 -17.9375 9.8125 C-17.94426758 8.68811523 -17.94426758 8.68811523 -17.95117188 7.54101562 C-17.96293646 5.69397617 -17.98087135 3.84697787 -18 2 C-13.33333333 2 -8.66666667 2 -4 2 C-4 2.66 -4 3.32 -4 4 C-2.68 3.67 -1.36 3.34 0 3 C0 2.01 0 1.02 0 0 Z M-4 6 C-3 8 -3 8 -3 8 Z M-16 22 C-16.69159401 23.84725052 -16.69159401 23.84725052 -17 26 C-16.01 27.485 -16.01 27.485 -15 29 C-14.01 28.34 -13.02 27.68 -12 27 C-12 26.34 -12 25.68 -12 25 C-12.66 24.67 -13.32 24.34 -14 24 C-14 23.34 -14 22.68 -14 22 C-14.66 22 -15.32 22 -16 22 Z M-13 36 C-13.33 36.66 -13.66 37.32 -14 38 C-13.34 38 -12.68 38 -12 38 C-12.33 37.34 -12.66 36.68 -13 36 Z M-17 44 C-16.34 44.66 -15.68 45.32 -15 46 C-15 45.34 -15 44.68 -15 44 C-15.66 44 -16.32 44 -17 44 Z M-14 47 C-14 47.66 -14 48.32 -14 49 C-13.34 48.67 -12.68 48.34 -12 48 C-12.66 47.67 -13.32 47.34 -14 47 Z M23 49 C21.5216774 51.95664519 21.93967217 54.74229737 22 58 C22.99 58.495 22.99 58.495 24 59 C23.979375 58.071875 23.95875 57.14375 23.9375 56.1875 C24 53 24 53 25 50 C24.34 49.67 23.68 49.34 23 49 Z M-16 50 C-16 50.66 -16 51.32 -16 52 C-15.01 51.67 -14.02 51.34 -13 51 C-13.99 50.67 -14.98 50.34 -16 50 Z M6 52 C5.67 54.31 5.34 56.62 5 59 C5.66 59 6.32 59 7 59 C7 58.34 7 57.68 7 57 C8.65 57.33 10.3 57.66 12 58 C12 57.34 12 56.68 12 56 C11.01 55.67 10.02 55.34 9 55 C9 54.34 9 53.68 9 53 C8.01 52.67 7.02 52.34 6 52 Z M-5 53 C-4.14092555 55.23221695 -4.14092555 55.23221695 -1.625 56.125 C1.01317616 57.15811388 1.01317616 57.15811388 4 57 C4 56.34 4 55.68 4 55 C-0.455 54.01 -0.455 54.01 -5 53 Z M-10 54 C-6 55 -6 55 -6 55 Z M16 55 C15.67 55.99 15.34 56.98 15 58 C16.65 57.34 18.3 56.68 20 56 C18.68 55.67 17.36 55.34 16 55 Z " fill="#98AD3A" transform="translate(206,232)"/>
<path d="M0 0 C0.928125 0.33 1.85625 0.66 2.8125 1 C2.86673638 2.91635217 2.90539963 4.83314925 2.9375 6.75 C2.96070313 7.81734375 2.98390625 8.8846875 3.0078125 9.984375 C2.81737687 12.92470106 2.33920104 14.52361878 0.8125 17 C1.4725 17.66 2.1325 18.32 2.8125 19 C2.4825 19.99 2.1525 20.98 1.8125 22 C1.90656754 24.29453495 1.90656754 24.29453495 2.25 26.6875 C2.35183594 27.49574219 2.45367187 28.30398437 2.55859375 29.13671875 C2.68427734 30.05904297 2.68427734 30.05904297 2.8125 31 C0.8325 31.66 -1.1475 32.32 -3.1875 33 C-3.1875 33.99 -3.1875 34.98 -3.1875 36 C-0.8775 36.99 1.4325 37.98 3.8125 39 C4.1425 44.94 4.4725 50.88 4.8125 57 C3.8225 57 2.8325 57 1.8125 57 C1.4825 58.32 1.1525 59.64 0.8125 61 C-0.1775 61 -1.1675 61 -2.1875 61 C-2.1875 61.99 -2.1875 62.98 -2.1875 64 C-1.1975 63.505 -1.1975 63.505 -0.1875 63 C1.48904729 63.27942455 3.15858154 63.60828247 4.8125 64 C4.8125 68 4.8125 68 3.5625 69.6875 C1.8125 71 1.8125 71 -0.25 71.4375 C-2.39923571 71.82450832 -2.39923571 71.82450832 -3.4375 74.0625 C-3.80875 75.0215625 -3.80875 75.0215625 -4.1875 76 C-5.5075 75.67 -6.8275 75.34 -8.1875 75 C-8.5175 73.68 -8.8475 72.36 -9.1875 71 C-10.12529297 70.86271484 -10.12529297 70.86271484 -11.08203125 70.72265625 C-12.12423828 70.36494141 -12.12423828 70.36494141 -13.1875 70 C-17.21289561 61.50194261 -17.35323699 52.87229648 -17.3125 43.625 C-17.31636719 42.72394531 -17.32023438 41.82289063 -17.32421875 40.89453125 C-17.32292969 40.03472656 -17.32164062 39.17492187 -17.3203125 38.2890625 C-17.31918457 37.51256348 -17.31805664 36.73606445 -17.31689453 35.93603516 C-17.1875 34 -17.1875 34 -16.1875 32 C-16.27984577 29.61092558 -16.42986346 27.25594655 -16.625 24.875 C-17.23454764 16.57217898 -17.2870858 8.32094651 -17.1875 0 C-12.3190316 -2.4342342 -5.11187478 -1.47699661 0 0 Z M-6.1875 9 C-5.8575 9.66 -5.5275 10.32 -5.1875 11 C-4.8575 10.34 -4.5275 9.68 -4.1875 9 C-4.8475 9 -5.5075 9 -6.1875 9 Z M-12.1875 13 C-12.1875 14.32 -12.1875 15.64 -12.1875 17 C-11.5275 15.68 -10.8675 14.36 -10.1875 13 C-10.8475 13 -11.5075 13 -12.1875 13 Z M-1.1875 29 C-0.1875 31 -0.1875 31 -0.1875 31 Z M-14.1875 31 C-10.1875 32 -10.1875 32 -10.1875 32 Z M0.8125 53 C1.8125 57 1.8125 57 1.8125 57 Z " fill="#98AD3A" transform="translate(267.1875,213)"/>
<path d="M0 0 C1.56692425 0.11803572 3.12955674 0.29506875 4.6875 0.5 C8.7125508 0.96000581 12.00831751 0.77886488 16 0 C16.99 0.33 17.98 0.66 19 1 C21.28571429 12.42857143 21.28571429 12.42857143 19 17 C16.35139573 17.59355614 13.70802678 17.74209269 11 18 C10.67 17.34 10.34 16.68 10 16 C9.67 17.32 9.34 18.64 9 20 C7 20 7 20 5.375 18.5 C4.92125 18.005 4.4675 17.51 4 17 C4 17.99 4 18.98 4 20 C3.01 19.67 2.02 19.34 1 19 C1 16.69 1 14.38 1 12 C1.66 12 2.32 12 3 12 C3 11.34 3 10.68 3 10 C2.01 10 1.02 10 0 10 C-0.19412181 8.52168779 -0.38012131 7.04230684 -0.5625 5.5625 C-0.66691406 4.73878906 -0.77132812 3.91507813 -0.87890625 3.06640625 C-0.91886719 2.38449219 -0.95882812 1.70257813 -1 1 C-0.67 0.67 -0.34 0.34 0 0 Z M13 12 C13 12.66 13 13.32 13 14 C13.99 13.67 14.98 13.34 16 13 C15.01 12.67 14.02 12.34 13 12 Z " fill="#98AD3A" transform="translate(188,212)"/>
<path d="M0 0 C2.97 0.495 2.97 0.495 6 1 C5.34 2.32 4.68 3.64 4 5 C2.68 5 1.36 5 0 5 C-0.33 4.01 -0.66 3.02 -1 2 C-0.67 1.34 -0.34 0.68 0 0 Z " fill="#A9BD46" transform="translate(227,108)"/>
<path d="M0 0 C2.97 0.495 2.97 0.495 6 1 C5.67 1.99 5.34 2.98 5 4 C3.0625 3.6875 3.0625 3.6875 1 3 C0.67 2.01 0.34 1.02 0 0 Z " fill="#A9BE46" transform="translate(272,109)"/>
<path d="M0 0 C0.33 0.99 0.66 1.98 1 3 C1.66 3.33 2.32 3.66 3 4 C2.34 4 1.68 4 1 4 C0.67 4.99 0.34 5.98 0 7 C-0.99 6.34 -1.98 5.68 -3 5 C-2.01 3.35 -1.02 1.7 0 0 Z " fill="#A9BE46" transform="translate(176,137)"/>
<path d="M0 0 C0.66 0 1.32 0 2 0 C2.33 1.32 2.66 2.64 3 4 C2.01 4.66 1.02 5.32 0 6 C-0.99 5.01 -1.98 4.02 -3 3 C-1.68 3.33 -0.36 3.66 1 4 C0.67 2.68 0.34 1.36 0 0 Z " fill="#A9BD46" transform="translate(11,102)"/>
<path d="M0 0 C2.1385485 2.1385485 2.42655063 3.13275314 3 6 C2.01 5.67 1.02 5.34 0 5 C0 3.35 0 1.7 0 0 Z " fill="#A9BD46" transform="translate(361,164)"/>
<path d="M0 0 C1.32 0 2.64 0 4 0 C4 0.66 4 1.32 4 2 C3.34 2 2.68 2 2 2 C1.67 2.66 1.34 3.32 1 4 C0.67 2.68 0.34 1.36 0 0 Z " fill="#AABD46" transform="translate(328,146)"/>
<path d="M0 0 C2.475 0.495 2.475 0.495 5 1 C3.02 1.99 3.02 1.99 1 3 C0.67 2.01 0.34 1.02 0 0 Z " fill="#A9BD46" transform="translate(368,122)"/>
<path d="M0 0 C1.32 0 2.64 0 4 0 C3.67 0.99 3.34 1.98 3 3 C2.01 2.67 1.02 2.34 0 2 C0 1.34 0 0.68 0 0 Z " fill="#A9BD46" transform="translate(179,93)"/>
<path d="M0 0 C0.99 0 1.98 0 3 0 C2.67 0.99 2.34 1.98 2 3 C1.34 3 0.68 3 0 3 C0 2.01 0 1.02 0 0 Z " fill="#AABD46" transform="translate(123,126)"/>
<path d="M0 0 C0.99 0.33 1.98 0.66 3 1 C2.01 1.66 1.02 2.32 0 3 C-0.66 2.67 -1.32 2.34 -2 2 C-1.34 1.34 -0.68 0.68 0 0 Z " fill="#AABD46" transform="translate(329,116)"/>
<path d="M0 0 C1.98 0.99 1.98 0.99 4 2 C2.68 2.33 1.36 2.66 0 3 C0 2.01 0 1.02 0 0 Z " fill="#A9BD46" transform="translate(322,104)"/>
<path d="M0 0 C0.66 0.99 1.32 1.98 2 3 C1.01 3 0.02 3 -1 3 C-0.67 2.01 -0.34 1.02 0 0 Z " fill="#98AE39" transform="translate(271,272)"/>
<path d="M0 0 C0.99 0.33 1.98 0.66 3 1 C2.67 1.66 2.34 2.32 2 3 C1.34 3 0.68 3 0 3 C0 2.01 0 1.02 0 0 Z " fill="#A9BD46" transform="translate(331,140)"/>
<path d="M0 0 C0.66 0 1.32 0 2 0 C1.34 1.32 0.68 2.64 0 4 C-0.33 3.34 -0.66 2.68 -1 2 C-0.67 1.34 -0.34 0.68 0 0 Z " fill="#A9BD46" transform="translate(322,134)"/>
<path d="M0 0 C0.33 0.99 0.66 1.98 1 3 C-0.32 2.34 -1.64 1.68 -3 1 C-2.01 0.67 -1.02 0.34 0 0 Z " fill="#A9BD46" transform="translate(129,124)"/>
<path d="M0 0 C2.475 0.99 2.475 0.99 5 2 C4.01 2.495 4.01 2.495 3 3 C2.01 2.67 1.02 2.34 0 2 C0 1.34 0 0.68 0 0 Z " fill="#AABE46" transform="translate(327,101)"/>
<path d="M0 0 C0.99 0.33 1.98 0.66 3 1 C1.68 1.33 0.36 1.66 -1 2 C-0.67 1.34 -0.34 0.68 0 0 Z " fill="#A9BD46" transform="translate(142,151)"/>
<path d="M0 0 C0.66 0.66 1.32 1.32 2 2 C1.01 2.33 0.02 2.66 -1 3 C-1.33 2.34 -1.66 1.68 -2 1 C-1.34 0.67 -0.68 0.34 0 0 Z " fill="#A9BD46" transform="translate(172,149)"/>
<path d="M0 0 C0.99 0 1.98 0 3 0 C2.67 0.99 2.34 1.98 2 3 C1.34 2.01 0.68 1.02 0 0 Z " fill="#A9BD46" transform="translate(30,128)"/>
<path d="M0 0 C1.32 0.33 2.64 0.66 4 1 C3.01 1.33 2.02 1.66 1 2 C0.67 1.34 0.34 0.68 0 0 Z " fill="#A9BD45" transform="translate(205,127)"/>
<path d="M0 0 C0.33 0.66 0.66 1.32 1 2 C-0.65 2 -2.3 2 -4 2 C-2.68 1.34 -1.36 0.68 0 0 Z " fill="#AABD46" transform="translate(330,113)"/>
<path d="M0 0 C0.99 0 1.98 0 3 0 C3 0.66 3 1.32 3 2 C2.01 2 1.02 2 0 2 C0 1.34 0 0.68 0 0 Z " fill="#A9BE46" transform="translate(330,96)"/>
<path d="M0 0 C0.99 0.33 1.98 0.66 3 1 C1.68 1.33 0.36 1.66 -1 2 C-0.67 1.34 -0.34 0.68 0 0 Z " fill="#A9BD46" transform="translate(328,91)"/>
<path d="M0 0 C1.485 0.99 1.485 0.99 3 2 C2.01 2.33 1.02 2.66 0 3 C0 2.01 0 1.02 0 0 Z " fill="#A9BD46" transform="translate(376,162)"/>
<path d="M0 0 C0.33 0.66 0.66 1.32 1 2 C0.01 2.33 -0.98 2.66 -2 3 C-2 2.34 -2 1.68 -2 1 C-1.34 0.67 -0.68 0.34 0 0 Z " fill="#AABD46" transform="translate(185,151)"/>
<path d="M0 0 C1.32 0.33 2.64 0.66 4 1 C2.68 1.33 1.36 1.66 0 2 C0 1.34 0 0.68 0 0 Z " fill="#A9BD46" transform="translate(317,149)"/>
<path d="M0 0 C0.99 0.33 1.98 0.66 3 1 C2.01 1.33 1.02 1.66 0 2 C0 1.34 0 0.68 0 0 Z " fill="#A9BD46" transform="translate(11,149)"/>
<path d="M0 0 C0.33 0 0.66 0 1 0 C1 1.65 1 3.3 1 5 C0.67 5 0.34 5 0 5 C0 3.35 0 1.7 0 0 Z " fill="#AABD46" transform="translate(131,137)"/>
<path d="M0 0 C0.66 0 1.32 0 2 0 C2.33 0.99 2.66 1.98 3 3 C2.34 3 1.68 3 1 3 C0.67 2.01 0.34 1.02 0 0 Z " fill="#AABE46" transform="translate(11,140)"/>
<path d="M0 0 C0.99 0.99 1.98 1.98 3 3 C2.01 2.67 1.02 2.34 0 2 C0 1.34 0 0.68 0 0 Z " fill="#A9BE46" transform="translate(179,137)"/>
<path d="M0 0 C0.66 0.66 1.32 1.32 2 2 C1.01 2 0.02 2 -1 2 C-0.67 1.34 -0.34 0.68 0 0 Z " fill="#A9BE46" transform="translate(172,137)"/>
<path d="M0 0 C0.33 0.66 0.66 1.32 1 2 C1.66 2.33 2.32 2.66 3 3 C2.01 3 1.02 3 0 3 C0 2.01 0 1.02 0 0 Z " fill="#AABD46" transform="translate(16,132)"/>
<path d="M0 0 C0.99 0.99 1.98 1.98 3 3 C2.01 2.67 1.02 2.34 0 2 C0 1.34 0 0.68 0 0 Z " fill="#A9BE46" transform="translate(133,129)"/>
<path d="M0 0 C0.99 0 1.98 0 3 0 C3 0.66 3 1.32 3 2 C2.01 1.67 1.02 1.34 0 1 C0 0.67 0 0.34 0 0 Z " fill="#A9BE46" transform="translate(343,122)"/>
<path d="M0 0 C0.99 0 1.98 0 3 0 C3 0.66 3 1.32 3 2 C2.01 1.67 1.02 1.34 0 1 C0 0.67 0 0.34 0 0 Z " fill="#A9BD46" transform="translate(362,119)"/>
<path d="M0 0 C0.66 0 1.32 0 2 0 C2 0.66 2 1.32 2 2 C1.34 2 0.68 2 0 2 C0 1.34 0 0.68 0 0 Z " fill="#98AE3A" transform="translate(346,282)"/>
<path d="M0 0 C0.99 0.495 0.99 0.495 2 1 C1.67 1.66 1.34 2.32 1 3 C0.67 2.01 0.34 1.02 0 0 Z " fill="#A9BE46" transform="translate(370,164)"/>
<path d="M0 0 C0.66 0.66 1.32 1.32 2 2 C1.01 1.67 0.02 1.34 -1 1 C-0.67 0.67 -0.34 0.34 0 0 Z " fill="#AABD46" transform="translate(19,162)"/>
<path d="M0 0 C0.99 0.33 1.98 0.66 3 1 C2.01 1 1.02 1 0 1 C0 0.67 0 0.34 0 0 Z " fill="#AABD46" transform="translate(136,161)"/>
<path d="M0 0 C0.99 0 1.98 0 3 0 C2.67 0.66 2.34 1.32 2 2 C1.34 1.34 0.68 0.68 0 0 Z " fill="#A9BD46" transform="translate(20,151)"/>
<path d="M0 0 C0 3 0 3 0 3 Z " fill="#AABE46" transform="translate(178,148)"/>
<path d="M0 0 C0.66 0.66 1.32 1.32 2 2 C1.01 1.67 0.02 1.34 -1 1 C-0.67 0.67 -0.34 0.34 0 0 Z " fill="#A9BD46" transform="translate(319,141)"/>
<path d="M0 0 C4 1 4 1 4 1 Z " fill="#AABE46" transform="translate(114,133)"/>
<path d="M0 0 C1 4 1 4 1 4 Z " fill="#A9BD46" transform="translate(364,129)"/>
<path d="M0 0 C0.33 0.99 0.66 1.98 1 3 C0.34 2.67 -0.32 2.34 -1 2 C-0.67 1.34 -0.34 0.68 0 0 Z " fill="#AABE46" transform="translate(21,129)"/>
<path d="M0 0 C0.99 0.33 1.98 0.66 3 1 C2.01 1 1.02 1 0 1 C0 0.67 0 0.34 0 0 Z " fill="#A9BD46" transform="translate(17,129)"/>
<path d="M0 0 C0.66 0.66 1.32 1.32 2 2 C1.01 1.67 0.02 1.34 -1 1 C-0.67 0.67 -0.34 0.34 0 0 Z " fill="#A9BD46" transform="translate(36,127)"/>
<path d="M0 0 C0.66 0.66 1.32 1.32 2 2 C1.01 2.495 1.01 2.495 0 3 C0 2.01 0 1.02 0 0 Z " fill="#A9BD45" transform="translate(114,125)"/>
<path d="M0 0 C4 1 4 1 4 1 Z " fill="#A9BE46" transform="translate(277,116)"/>
<path d="M0 0 C0.33 0.66 0.66 1.32 1 2 C0.01 1.67 -0.98 1.34 -2 1 C-1.34 0.67 -0.68 0.34 0 0 Z " fill="#A9BD45" transform="translate(333,100)"/>
<path d="M0 0 C0.99 0.33 1.98 0.66 3 1 C2.01 1 1.02 1 0 1 C0 0.67 0 0.34 0 0 Z " fill="#AABD46" transform="translate(12,100)"/>
<path d="M0 0 C0.66 0 1.32 0 2 0 C2 0.66 2 1.32 2 2 C1.34 2 0.68 2 0 2 C0 1.34 0 0.68 0 0 Z " fill="#A9BD46" transform="translate(9,97)"/>
<path d="M0 0 C0.66 0.66 1.32 1.32 2 2 C1.01 1.67 0.02 1.34 -1 1 C-0.67 0.67 -0.34 0.34 0 0 Z " fill="#AABE47" transform="translate(321,95)"/>
<path d="M0 0 C0.66 0.33 1.32 0.66 2 1 C1.01 1 0.02 1 -1 1 C-0.67 0.67 -0.34 0.34 0 0 Z " fill="#A9BD46" transform="translate(365,90)"/>
<path d="M0 0 C0.66 0 1.32 0 2 0 C2 0.66 2 1.32 2 2 C1.34 2 0.68 2 0 2 C0 1.34 0 0.68 0 0 Z " fill="#A9BE46" transform="translate(9,89)"/>
<path d="M0 0 C0.66 0 1.32 0 2 0 C2 0.66 2 1.32 2 2 C1.34 2 0.68 2 0 2 C0 1.34 0 0.68 0 0 Z " fill="#A9BE46" transform="translate(332,88)"/>
<path d="M0 0 C0.99 0.495 0.99 0.495 2 1 C1.01 1.495 1.01 1.495 0 2 C0 1.34 0 0.68 0 0 Z " fill="#A9BD46" transform="translate(10,169)"/>
<path d="M0 0 C3 1 3 1 3 1 Z " fill="#AABE46" transform="translate(15,167)"/>
<path d="M0 0 C0.33 0.66 0.66 1.32 1 2 C0.34 1.67 -0.32 1.34 -1 1 C-0.67 0.67 -0.34 0.34 0 0 Z " fill="#A9BD46" transform="translate(144,165)"/>
<path d="M0 0 C0.99 0.495 0.99 0.495 2 1 C1.01 1.495 1.01 1.495 0 2 C0 1.34 0 0.68 0 0 Z " fill="#AABD46" transform="translate(7,165)"/>
<path d="" fill="#AABE46" transform="translate(0,0)"/>
<path d="M0 0 C3 1 3 1 3 1 Z " fill="#A9BD46" transform="translate(349,163)"/>
<path d="M0 0 C0.33 0.66 0.66 1.32 1 2 C0.34 1.67 -0.32 1.34 -1 1 C-0.67 0.67 -0.34 0.34 0 0 Z " fill="#A9BD46" transform="translate(22,161)"/>
<path d="M0 0 C0.66 0.66 1.32 1.32 2 2 C1.34 2 0.68 2 0 2 C0 1.34 0 0.68 0 0 Z " fill="#AABD47" transform="translate(134,155)"/>
<path d="M0 0 C0.33 0.66 0.66 1.32 1 2 C0.34 1.67 -0.32 1.34 -1 1 C-0.67 0.67 -0.34 0.34 0 0 Z " fill="#A9BE47" transform="translate(332,155)"/>
<path d="M0 0 C0.66 0.66 1.32 1.32 2 2 C1.34 2 0.68 2 0 2 C0 1.34 0 0.68 0 0 Z " fill="#AABD47" transform="translate(136,149)"/>
<path d="M0 0 C0.66 0.66 1.32 1.32 2 2 C1.34 2 0.68 2 0 2 C0 1.34 0 0.68 0 0 Z " fill="#A9BD45" transform="translate(181,146)"/>
<path d="M0 0 C0.33 0.66 0.66 1.32 1 2 C0.34 1.67 -0.32 1.34 -1 1 C-0.67 0.67 -0.34 0.34 0 0 Z " fill="#AABD46" transform="translate(327,141)"/>
<path d="M0 0 C0.33 0.66 0.66 1.32 1 2 C0.34 1.67 -0.32 1.34 -1 1 C-0.67 0.67 -0.34 0.34 0 0 Z " fill="#AABE46" transform="translate(100,134)"/>
<path d="M0 0 C0.99 0.495 0.99 0.495 2 1 C1.01 1.495 1.01 1.495 0 2 C0 1.34 0 0.68 0 0 Z " fill="#AABD46" transform="translate(211,129)"/>
<path d="M0 0 C0.66 0 1.32 0 2 0 C1.67 0.66 1.34 1.32 1 2 C0.67 1.34 0.34 0.68 0 0 Z " fill="#A9BD46" transform="translate(42,129)"/>
<path d="M0 0 C0.99 0.495 0.99 0.495 2 1 C1.01 1.495 1.01 1.495 0 2 C0 1.34 0 0.68 0 0 Z " fill="#AABD45" transform="translate(360,128)"/>
<path d="M0 0 C0.99 0.495 0.99 0.495 2 1 C1.01 1.495 1.01 1.495 0 2 C0 1.34 0 0.68 0 0 Z " fill="#A9BE46" transform="translate(347,128)"/>
<path d="" fill="#A9BD46" transform="translate(0,0)"/>
<path d="M0 0 C0.66 0 1.32 0 2 0 C1.67 0.66 1.34 1.32 1 2 C0.67 1.34 0.34 0.68 0 0 Z " fill="#A9BD46" transform="translate(326,126)"/>
<path d="M0 0 C0.66 0 1.32 0 2 0 C1.67 0.66 1.34 1.32 1 2 C0.67 1.34 0.34 0.68 0 0 Z " fill="#AABE45" transform="translate(364,124)"/>
<path d="M0 0 C0.33 0.66 0.66 1.32 1 2 C0.34 1.67 -0.32 1.34 -1 1 C-0.67 0.67 -0.34 0.34 0 0 Z " fill="#AABD45" transform="translate(216,123)"/>
<path d="" fill="#A9BD45" transform="translate(0,0)"/>
<path d="M0 0 C3 1 3 1 3 1 Z " fill="#A9BD46" transform="translate(330,108)"/>
<path d="" fill="#A9BD46" transform="translate(0,0)"/>
<path d="M0 0 C2 1 2 1 2 1 Z " fill="#AABE47" transform="translate(327,169)"/>
<path d="M0 0 C2 1 2 1 2 1 Z " fill="#A9BD47" transform="translate(140,169)"/>
<path d="" fill="#A9BE46" transform="translate(0,0)"/>
<path d="" fill="#A9BD46" transform="translate(0,0)"/>
<path d="" fill="#A9BE46" transform="translate(0,0)"/>
<path d="M0 0 C2 1 2 1 2 1 Z " fill="#AABE46" transform="translate(186,165)"/>
<path d="M0 0 C2 1 2 1 2 1 Z " fill="#A9BE46" transform="translate(94,165)"/>
<path d="" fill="#A9BE46" transform="translate(0,0)"/>
<path d="M0 0 C2 1 2 1 2 1 Z " fill="#A9BD46" transform="translate(291,163)"/>
<path d="M0 0 C2 1 2 1 2 1 Z " fill="#A9BD46" transform="translate(139,163)"/>
<path d="M0 0 C2 1 2 1 2 1 Z " fill="#A9BD46" transform="translate(146,160)"/>
<path d="M0 0 C2 1 2 1 2 1 Z " fill="#AABE47" transform="translate(16,157)"/>
<path d="M0 0 C2 1 2 1 2 1 Z " fill="#A9BD46" transform="translate(141,156)"/>
<path d="" fill="#AABE46" transform="translate(0,0)"/>
<path d="M0 0 C2 1 2 1 2 1 Z " fill="#AABE45" transform="translate(100,151)"/>
<path d="" fill="#AABD46" transform="translate(0,0)"/>
<path d="" fill="#A9BE46" transform="translate(0,0)"/>
<path d="M0 0 C2 1 2 1 2 1 Z " fill="#AABD46" transform="translate(14,145)"/>
<path d="M0 0 C2 1 2 1 2 1 Z " fill="#A9BD45" transform="translate(186,139)"/>
<path d="" fill="#A9BE46" transform="translate(0,0)"/>
<path d="" fill="#A9BE46" transform="translate(0,0)"/>
<path d="M0 0 C2 1 2 1 2 1 Z " fill="#A9BD45" transform="translate(118,134)"/>
<path d="M0 0 C2 1 2 1 2 1 Z " fill="#AABD46" transform="translate(170,133)"/>
<path d="M0 0 C2 1 2 1 2 1 Z " fill="#A9BE46" transform="translate(96,133)"/>
<path d="M0 0 C2 1 2 1 2 1 Z " fill="#A9BD45" transform="translate(181,131)"/>
<path d="M0 0 C2 1 2 1 2 1 Z " fill="#AABD47" transform="translate(121,131)"/>
<path d="M0 0 C2 1 2 1 2 1 Z " fill="#AABE46" transform="translate(214,130)"/>
<path d="" fill="#AABD46" transform="translate(0,0)"/>
<path d="M0 0 C2 1 2 1 2 1 Z " fill="#A9BD46" transform="translate(263,126)"/>
<path d="" fill="#AABD47" transform="translate(0,0)"/>
<path d="" fill="#AABE46" transform="translate(0,0)"/>
<path d="" fill="#A9BD46" transform="translate(0,0)"/>
<path d="" fill="#AABD46" transform="translate(0,0)"/>
<path d="M0 0 C2 1 2 1 2 1 Z " fill="#AABD45" transform="translate(116,125)"/>
<path d="" fill="#AABE46" transform="translate(0,0)"/>
<path d="M0 0 C2 1 2 1 2 1 Z " fill="#AABD46" transform="translate(274,115)"/>
<path d="M0 0 C2 1 2 1 2 1 Z " fill="#AABE47" transform="translate(12,109)"/>
<path d="M0 0 C2 1 2 1 2 1 Z " fill="#A9BD46" transform="translate(328,107)"/>
<path d="" fill="#A9BD46" transform="translate(0,0)"/>
<path d="M0 0 C2 1 2 1 2 1 Z " fill="#AABD46" transform="translate(280,104)"/>
<path d="M0 0 C2 1 2 1 2 1 Z " fill="#AABE46" transform="translate(340,94)"/>
<path d="" fill="#A9BD46" transform="translate(0,0)"/>
<path d="" fill="#99AE3A" transform="translate(0,0)"/>
<path d="" fill="#98AD3A" transform="translate(0,0)"/>
<path d="" fill="#98AD3A" transform="translate(0,0)"/>
<path d="" fill="#99AE3B" transform="translate(0,0)"/>
<path d="" fill="#AABD47" transform="translate(0,0)"/>
<path d="" fill="#AABD46" transform="translate(0,0)"/>
<path d="" fill="#A9BD47" transform="translate(0,0)"/>
<path d="" fill="#ABBD46" transform="translate(0,0)"/>
<path d="" fill="#A9BD45" transform="translate(0,0)"/>
<path d="" fill="#AABF46" transform="translate(0,0)"/>
<path d="" fill="#A9BD46" transform="translate(0,0)"/>
<path d="" fill="#ABBF45" transform="translate(0,0)"/>
<path d="" fill="#A9BE46" transform="translate(0,0)"/>
<path d="" fill="#AABE47" transform="translate(0,0)"/>
<path d="" fill="#AABD47" transform="translate(0,0)"/>
<path d="" fill="#A9BE47" transform="translate(0,0)"/>
<path d="" fill="#AABE46" transform="translate(0,0)"/>
<path d="" fill="#ABBD46" transform="translate(0,0)"/>
<path d="" fill="#ABBE47" transform="translate(0,0)"/>
<path d="" fill="#AABD45" transform="translate(0,0)"/>
<path d="" fill="#AABE47" transform="translate(0,0)"/>
<path d="" fill="#AABD46" transform="translate(0,0)"/>
<path d="" fill="#ABBD47" transform="translate(0,0)"/>
<path d="" fill="#ABBF46" transform="translate(0,0)"/>
<path d="" fill="#AABF47" transform="translate(0,0)"/>
<path d="" fill="#A9BD47" transform="translate(0,0)"/>
<path d="" fill="#A9BE46" transform="translate(0,0)"/>
<path d="" fill="#AABD47" transform="translate(0,0)"/>
<path d="" fill="#A9BE47" transform="translate(0,0)"/>
<path d="" fill="#A9BD46" transform="translate(0,0)"/>
<path d="" fill="#AABE45" transform="translate(0,0)"/>
<path d="" fill="#AABD46" transform="translate(0,0)"/>
<path d="" fill="#AABD47" transform="translate(0,0)"/>
<path d="" fill="#ABBD46" transform="translate(0,0)"/>
<path d="" fill="#ABBF46" transform="translate(0,0)"/>
<path d="" fill="#AABE47" transform="translate(0,0)"/>
<path d="" fill="#ABBD47" transform="translate(0,0)"/>
<path d="" fill="#ABBD47" transform="translate(0,0)"/>
<path d="" fill="#A9BD46" transform="translate(0,0)"/>
<path d="" fill="#ABBD47" transform="translate(0,0)"/>
<path d="" fill="#AABF46" transform="translate(0,0)"/>
<path d="" fill="#AABE47" transform="translate(0,0)"/>
<path d="" fill="#A9BE47" transform="translate(0,0)"/>
<path d="" fill="#A9BE46" transform="translate(0,0)"/>
<path d="" fill="#AABD46" transform="translate(0,0)"/>
<path d="" fill="#AABD45" transform="translate(0,0)"/>
<path d="" fill="#A9BE46" transform="translate(0,0)"/>
<path d="" fill="#AABF46" transform="translate(0,0)"/>
<path d="" fill="#ABBE47" transform="translate(0,0)"/>
<path d="" fill="#A9BF45" transform="translate(0,0)"/>
<path d="" fill="#A9BE46" transform="translate(0,0)"/>
<path d="" fill="#AABE45" transform="translate(0,0)"/>
<path d="" fill="#AABD46" transform="translate(0,0)"/>
<path d="" fill="#A9BF45" transform="translate(0,0)"/>
<path d="" fill="#AABD46" transform="translate(0,0)"/>
<path d="" fill="#A9BD47" transform="translate(0,0)"/>
<path d="" fill="#AABD47" transform="translate(0,0)"/>
<path d="" fill="#AABE47" transform="translate(0,0)"/>
<path d="" fill="#ABBF45" transform="translate(0,0)"/>
<path d="" fill="#AABE47" transform="translate(0,0)"/>
<path d="" fill="#ABBD46" transform="translate(0,0)"/>
<path d="" fill="#A9BE46" transform="translate(0,0)"/>
<path d="" fill="#A9BE47" transform="translate(0,0)"/>
<path d="" fill="#A9BE47" transform="translate(0,0)"/>
<path d="" fill="#AABF46" transform="translate(0,0)"/>
<path d="" fill="#A9BE46" transform="translate(0,0)"/>
<path d="" fill="#A9BF45" transform="translate(0,0)"/>
<path d="" fill="#A9BD47" transform="translate(0,0)"/>
<path d="" fill="#A9BD47" transform="translate(0,0)"/>
<path d="" fill="#A9BE47" transform="translate(0,0)"/>
<path d="" fill="#A9BD46" transform="translate(0,0)"/>
<path d="" fill="#A9BD45" transform="translate(0,0)"/>
<path d="" fill="#AABE47" transform="translate(0,0)"/>
<path d="" fill="#AABF46" transform="translate(0,0)"/>
<path d="" fill="#ABBE47" transform="translate(0,0)"/>
<path d="" fill="#ABBF46" transform="translate(0,0)"/>
<path d="" fill="#ABBD46" transform="translate(0,0)"/>
<path d="" fill="#A9BD47" transform="translate(0,0)"/>
<path d="" fill="#A9BD46" transform="translate(0,0)"/>
<path d="" fill="#ABBE46" transform="translate(0,0)"/>
<path d="" fill="#AABE46" transform="translate(0,0)"/>
<path d="" fill="#A9BE47" transform="translate(0,0)"/>
<path d="" fill="#AABE47" transform="translate(0,0)"/>
<path d="" fill="#A9BE46" transform="translate(0,0)"/>
<path d="" fill="#A9BE45" transform="translate(0,0)"/>
<path d="" fill="#A9BE45" transform="translate(0,0)"/>
<path d="" fill="#A9BD46" transform="translate(0,0)"/>
<path d="" fill="#AABD47" transform="translate(0,0)"/>
<path d="" fill="#A9BE47" transform="translate(0,0)"/>
<path d="" fill="#A9BE46" transform="translate(0,0)"/>
<path d="" fill="#A9BD46" transform="translate(0,0)"/>
<path d="" fill="#ABBF47" transform="translate(0,0)"/>
<path d="" fill="#AABD47" transform="translate(0,0)"/>
<path d="" fill="#AABD46" transform="translate(0,0)"/>
<path d="" fill="#AABF46" transform="translate(0,0)"/>
<path d="" fill="#ABBF47" transform="translate(0,0)"/>
<path d="" fill="#ABBE48" transform="translate(0,0)"/>
<path d="" fill="#ABBE47" transform="translate(0,0)"/>
<path d="" fill="#AABD47" transform="translate(0,0)"/>
<path d="" fill="#A9BE46" transform="translate(0,0)"/>
<path d="" fill="#AABD46" transform="translate(0,0)"/>
<path d="" fill="#A9BD45" transform="translate(0,0)"/>
<path d="" fill="#A9BE46" transform="translate(0,0)"/>
<path d="" fill="#A9BE45" transform="translate(0,0)"/>
<path d="" fill="#A9BE47" transform="translate(0,0)"/>
<path d="" fill="#A9BD46" transform="translate(0,0)"/>
</svg>
